<?xml version="1.0" encoding="UTF-8" standalone="no"?>
<svg
   width="270mm"
   height="270mm"
   viewBox="0 0 270 270"
   version="1.1"
   id="svg1"
   xmlns="http://www.w3.org/2000/svg"
   xmlns:svg="http://www.w3.org/2000/svg">
  <defs
     id="defs2" />
  <circle
     style="fill:none;fill-opacity:1;stroke:#ffffff;stroke-width:1.36938;stroke-opacity:0"
     id="path9237"
     cx="135"
     cy="135"
     r="134.31531" />
  <g
     style="fill:#ffffff;fill-opacity:1"
     id="g1"
     transform="matrix(0.29623794,0,0,0.29623794,77.007825,70.871612)">
    <g
       id="g3"
       style="fill:#ffffff;fill-opacity:1">
      <path
         id="path264-2"
         style="fill:#000000;stroke-width:0.746077"
         d="m 496.1863,-1648.2213 c -6.15066,-0.3842 -10.14286,0.8015 -12.21173,3.6068 -1.04302,1.4138 -1.36017,2.9961 -1.29974,4.3614 l -25.47925,168.0962 0.0961,0.5488 c 1.55707,8.6813 8.90897,13.6338 20.75967,14.0822 l 3.50591,-23.8447 c -13.5816,-2.8045 -17.55288,-9.0597 -17.55288,-9.0597 l 1.7092,-11.2577 c 6.07531,4.9681 12.93979,7.2279 17.61471,8.2597 l 15.67533,-106.6014 c -13.6838,-2.7933 -17.66131,-9.0962 -17.66131,-9.0962 l 1.7054,-11.2592 c 6.10814,4.9972 13.04605,7.2643 17.72694,8.2887 l 2.93191,-19.9345 c -10.48239,-2.3449 -13.64766,-5.8311 -14.1535,-7.6814 -0.0119,-0.1701 -0.0391,-0.3363 -0.0794,-0.5056 0,-0.035 -0.007,-0.075 -0.007,-0.107 l 0.0228,-0.1422 -0.0866,-0.016 c -0.0119,-0.049 -0.0195,-0.095 -0.0352,-0.1394 0.008,-0.012 1.02017,-1.2231 6.41356,-0.906 10.4339,0.6453 112.12881,17.2882 136.41736,21.2752 -0.74608,1.8234 -1.30666,4.201 -1.38724,7.2159 l -82.43994,-12.1884 c 4.57644,19.8516 -1.35062,36.0459 -1.35062,36.0459 -1.39666,-3.9117 -10.89393,-11.1555 -10.89393,-11.1555 -7.54285,7.5682 -14.25004,8.0824 -14.25004,8.0824 3.88855,-20.6939 1.95855,-31.6368 0.0195,-36.8906 l -11.57495,-1.7116 -25.45309,173.1049 c 0.24173,-0.023 0.48666,-0.054 0.65677,-0.078 l 136.98329,21.1634 c 0.17383,0.027 0.34399,0.039 0.51409,0.039 1.60258,0 3.01274,-1.1474 3.29476,-2.7783 l 29.06316,-166.5248 c 0.15444,-0.8901 -0.0572,-1.804 -0.58685,-2.5396 -0.53121,-0.7364 -1.33461,-1.2227 -2.23139,-1.3525 l -4.7e-4,5e-4 -15.07088,-2.2271 c -0.0739,-5.9224 2.25236,-7.8425 2.2837,-7.8693 1.14746,-0.7625 1.7117,-2.1482 1.42148,-3.4926 -0.29396,-1.3489 -1.3716,-2.3858 -2.73169,-2.6081 -5.31208,-0.8759 -130.13589,-21.4596 -142.27831,-22.2035 z m 135.7782,46.8424 c 1.89517,-0.028 3.79206,0.051 5.67833,0.2354 1.64111,0.1159 3.26172,0.6223 4.63825,1.5309 1.76291,1.1367 3.09646,2.9172 3.67617,4.9345 0.7182,2.3812 0.37351,5.0538 -0.92403,7.1755 -1.24844,2.0839 -3.37675,3.6125 -5.75062,4.1284 -2.44113,0.5572 -5.09998,0.014 -7.13548,-1.4414 -1.21052,2.1228 -3.18941,3.7972 -5.49096,4.623 -0.14977,0.3787 -0.28379,0.788 -0.46701,1.1623 -1.18402,2.5904 -3.48862,4.6374 -6.20194,5.5043 -0.13022,0.4042 -0.28635,0.8001 -0.46653,1.1846 -1.1877,2.5741 -3.4842,4.6055 -6.18529,5.4672 -0.12898,0.3982 -0.28208,0.7888 -0.4594,1.168 -1.18019,2.5674 -3.46167,4.5978 -6.14963,5.47 -0.51313,1.9167 -1.04573,3.8285 -1.54656,5.7483 -0.21018,1.1967 -0.72038,2.3429 -1.51089,3.2695 -2.26074,2.513 -4.53862,5.0111 -6.80591,7.5183 0.42241,0.4943 0.88557,0.9532 1.38201,1.373 3.31752,2.6486 6.64928,5.2793 9.97227,7.9211 1.60908,1.2113 2.74222,3.0377 3.08551,5.0245 0.39593,2.1281 -0.11234,4.4053 -1.38629,6.1567 -1.2802,1.8063 -3.33384,3.0328 -5.52995,3.309 -2.16143,0.294 -4.42768,-0.3351 -6.12347,-1.7087 -1.06222,-0.7771 -1.85585,-1.9199 -2.16813,-3.202 -0.47034,-1.8121 0.0418,-3.8457 1.33636,-5.2023 -0.0667,-0.1658 -0.13624,-0.3305 -0.20925,-0.4936 -0.13962,-0.3098 -0.30365,-0.6392 -0.48033,-0.9593 -0.1117,-0.2049 -0.25755,-0.4485 -0.36381,-0.6187 -0.94144,-1.5035 -2.19471,-2.8112 -3.6581,-3.8141 -0.11323,0.172 -0.22076,0.3482 -0.32529,0.5255 -0.12837,0.214 -0.26911,0.474 -0.37,0.6673 -0.5083,0.9766 -0.90598,2.0092 -1.19844,3.0703 -0.28662,1.0274 -0.47738,2.12 -0.57497,3.154 -0.0217,0.2185 -0.0422,0.5125 -0.0561,0.7276 -0.0262,0.4676 -0.036,0.9114 -0.0304,1.3672 0.0121,1.067 0.10869,2.1258 0.28582,3.1612 0.0784,0.4524 0.15461,0.8309 0.26061,1.2721 0.20751,0.625 0.0749,1.3598 -0.3933,1.8343 -7.32942,7.3235 -14.99259,14.3217 -23.07998,20.802 -0.0176,0.2851 -0.0238,0.5709 -0.0271,0.8565 -0.0105,3.2077 0.95556,6.4517 2.45205,9.3098 0.0834,0.156 0.19691,0.3646 0.26156,0.4879 0.35698,0.6377 0.73538,1.2643 1.1585,1.8605 0.45837,0.5342 0.5778,1.3376 0.2511,1.9679 -0.37666,0.8011 -1.40182,1.1999 -2.22092,0.8646 -1.43889,-0.6919 -2.79806,-1.5476 -4.0747,-2.5053 -3.99136,-2.9972 -7.04789,-7.2063 -8.69203,-11.9169 -1.27684,-3.8239 -2.52881,-7.6564 -3.79602,-11.4836 -0.45658,-1.3357 -0.83588,-2.6778 -1.38724,-3.9763 -0.18628,-0.4447 -0.40372,-0.9158 -0.61016,-1.3259 -0.66504,-1.3306 -1.467,-2.5928 -2.38928,-3.7599 -0.18023,-0.2308 -0.39629,-0.4894 -0.56688,-0.69 -0.57381,-0.6683 -1.18717,-1.3025 -1.83571,-1.8985 -0.38562,-0.3501 -0.73999,-0.6559 -1.14708,-0.9806 -0.19158,-0.1527 -0.42751,-0.3325 -0.59731,-0.4613 -0.96658,-0.716 -1.98969,-1.3559 -3.05983,-1.9052 -0.57136,-0.2385 -1.02462,-0.7601 -1.11712,-1.3801 -0.16067,-0.8593 0.41756,-1.7714 1.26312,-1.9926 1.66566,-0.3488 3.39345,-0.364 5.07673,-0.1342 3.2715,0.4501 6.35188,1.8002 9.16284,3.4927 7.19939,-7.8191 14.06122,-15.9508 20.51571,-24.3959 -1.61275,-1.1163 -3.48223,-1.8576 -5.42105,-2.153 -0.65711,0.9945 -1.64952,1.7598 -2.77259,2.1563 -1.74342,0.6338 -3.79324,0.3312 -5.26696,-0.7999 -1.23391,-0.8923 -2.23553,-2.1127 -2.81063,-3.5269 -0.94144,-2.2462 -0.79817,-4.9161 0.39996,-7.0394 1.09305,-1.9872 3.05968,-3.4673 5.27552,-3.9563 2.27069,-0.5308 4.76028,-0.017 6.62615,1.3844 3.29288,2.5992 6.573,5.2148 9.86098,7.8203 0.11908,0.1082 0.24233,-0.1304 0.36429,-0.1774 0.92127,-3.1586 1.84276,-6.3171 2.76402,-9.4757 1.59701,-5.6699 4.18684,-11.0614 7.65148,-15.8271 4.70534,-6.4965 11.01634,-11.8162 18.21156,-15.3609 6.57743,-3.2561 13.88567,-5.0173 21.22383,-5.1239 z m 0.76804,3.5392 c -0.72186,8e-4 -1.47619,0.018 -2.19286,0.052 -0.67484,0.032 -1.39036,0.081 -2.06683,0.145 -0.82079,0.074 -1.69736,0.1806 -2.51578,0.3025 -1.10092,0.1626 -2.179,0.3641 -3.24578,0.6001 -2.61267,0.5805 -5.20006,1.4013 -7.64339,2.415 -0.71656,0.2988 -1.4053,0.6028 -2.11963,0.9431 -3.49732,1.6572 -6.80306,3.7789 -9.76206,6.2452 -2.68024,2.2354 -5.10774,4.7746 -7.21586,7.5563 -3.30457,4.3496 -5.82315,9.3189 -7.40323,14.5297 -0.65085,2.2134 -1.30672,4.4779 -1.95935,6.7108 0.8025,-0.4063 1.61886,-0.7856 2.44634,-1.1385 0.44566,-1.8035 1.02927,-3.5712 1.71824,-5.296 2.5492,-6.344 6.56212,-12.0219 11.28627,-16.9318 2.95827,-3.0544 6.15107,-5.908 9.70072,-8.2621 4.36487,-2.9094 9.2795,-5.068 14.46548,-5.9594 5.22055,-0.9147 10.68528,-0.4871 15.66914,1.335 0.11699,0.034 0.27997,0.1184 0.36524,0.1265 -0.0566,-0.1171 -0.16258,-0.3308 -0.25205,-0.478 -0.79511,-1.38 -2.24396,-2.345 -3.81789,-2.5714 -1.8082,-0.2242 -3.65027,-0.3207 -5.45672,-0.3244 z m -1.13043,4.9864 c -0.16649,7e-4 -0.39069,0 -0.52598,0 -1.45446,0.025 -2.90702,0.1593 -4.34055,0.4066 0.43543,0.1387 0.86394,0.298 1.28785,0.4684 1.70377,0.7046 3.33515,1.6328 4.70959,2.8706 0.0871,0.1136 0.3262,0.2229 0.31816,0.3391 0.17883,0.1878 0.35052,0.3831 0.53882,0.5616 1.2308,1.1939 3.04653,1.724 4.72909,1.4125 1.94479,-0.3279 3.61418,-1.8213 4.21357,-3.6914 -1.76908,-0.8318 -3.64519,-1.4276 -5.55849,-1.8219 -0.69093,-0.142 -1.34822,-0.2487 -2.04115,-0.3372 -1.07287,-0.1355 -2.22296,-0.2077 -3.33091,-0.2112 z m -10.88251,3.0337 c -0.83782,0 -1.74225,0.084 -2.55716,0.2107 -1.72724,0.8515 -3.383,1.8436 -4.96782,2.9366 0.97427,0.052 1.94481,0.166 2.90717,0.3253 3.19024,0.5421 6.29426,1.5431 9.24797,2.8568 1.79391,-0.6072 3.29528,-2.0035 4.04855,-3.739 -0.98105,-0.6783 -2.05331,-1.2219 -3.17064,-1.6374 -1.42684,-0.5315 -3.00973,-0.8601 -4.56073,-0.933 -0.33245,-0.017 -0.63154,-0.022 -0.94734,-0.02 z m -8.76147,6.6551 c -0.36316,0 -0.72913,0.014 -1.10951,0.041 -0.90411,0.067 -1.88261,0.2312 -2.77258,0.5298 -0.96258,0.867 -1.90056,1.7612 -2.81254,2.6813 1.58678,-0.1078 3.1839,-0.03 4.75715,0.1983 3.04973,0.4501 6.01918,1.4303 8.751,2.8563 1.87498,-0.5625 3.46938,-1.9769 4.24924,-3.7727 -0.63819,-0.2634 -1.31118,-0.5208 -1.93178,-0.7405 -2.19378,-0.7691 -4.45584,-1.3721 -6.76738,-1.6493 -0.40755,-0.05 -0.85657,-0.087 -1.24125,-0.1127 -0.38366,-0.022 -0.75454,-0.033 -1.12235,-0.032 z m -5.30453,6.7655 c -0.0997,9e-4 -0.19899,0 -0.29866,0 -1.68083,0.024 -3.42274,0.3004 -5.03345,0.8641 -0.97858,1.204 -1.90684,2.4494 -2.77592,3.7347 1.37841,-0.3309 2.79302,-0.5111 4.21024,-0.5379 3.22915,-0.051 6.47693,0.6717 9.36069,2.1311 1.90917,-0.5707 3.52486,-2.0265 4.29156,-3.8655 -0.47782,-0.2278 -0.96438,-0.4372 -1.4562,-0.633 -0.34297,-0.1381 -0.72781,-0.2779 -1.05197,-0.3923 -1.5759,-0.5462 -3.20456,-0.9477 -4.86082,-1.1523 -0.20955,-0.028 -0.471,-0.05 -0.64678,-0.071 -0.58191,-0.053 -1.17679,-0.08 -1.73869,-0.08 z m -3.56013,7.6092 c -0.0803,5e-4 -0.19926,0 -0.25871,0 -2.47659,0.043 -4.93002,0.681 -7.14452,1.7825 -0.20716,0.402 -0.40836,0.8068 -0.60112,1.216 2.15633,-0.3358 4.37132,-0.5053 6.53531,-0.1388 1.62765,0.2808 3.26933,0.9265 4.39951,2.1733 1.66219,-0.6604 3.03512,-2.007 3.72849,-3.6557 -1.08499,-0.4771 -2.22431,-0.8278 -3.38607,-1.0605 -1.07414,-0.2146 -2.20343,-0.3227 -3.27289,-0.3196 z m -3.97198,6.1962 c -1.90612,0 -3.79802,0.3132 -5.6536,0.7286 -0.10076,0.2838 -0.19716,0.5694 -0.29105,0.8555 0.68958,-0.2199 1.38486,-0.4229 2.08491,-0.6068 0.90089,-0.224 1.80072,-0.48 2.72645,-0.5769 1.85237,-0.1834 3.76761,0.4684 5.11335,1.7568 0.0985,-0.2888 0.17682,-0.6463 0.26775,-0.9611 -0.12883,-0.1356 -0.27618,-0.2536 -0.43324,-0.3553 -1.01145,-0.6338 -2.23616,-0.7793 -3.40462,-0.8337 -0.12684,0 -0.32975,-0.01 -0.40995,-0.01 z m -31.91136,1.3178 c -0.33102,-0.01 -0.66305,0.015 -0.98824,0.078 -1.60898,0.2826 -2.99976,1.5098 -3.48832,3.0674 -0.53148,1.5989 -0.0807,3.4727 1.13187,4.6454 0.47075,0.438 0.99617,0.9023 1.66783,0.9588 0.94151,0.1266 1.9138,-0.4814 2.20713,-1.3858 0.30097,-0.8362 -0.014,-1.8311 -0.72858,-2.3551 -0.69714,-0.5712 -0.81776,-1.6923 -0.26061,-2.4002 0.51599,-0.7261 1.60431,-0.9306 2.35075,-0.4461 1.35416,0.9587 2.20154,2.5718 2.27894,4.2241 3.50933,0.6184 6.79495,2.4126 9.21611,5.0268 0.54154,0.6213 1.15422,1.1963 1.89515,1.5722 1.61381,0.8675 3.65238,0.8546 5.26031,-0.021 0.50669,-0.3317 1.17382,-0.4292 1.73441,-0.1773 0.80718,0.3232 1.26549,1.2936 1.00583,2.1229 -0.52713,1.7041 -0.18665,3.651 0.91358,5.0591 0.55094,0.7367 1.30481,1.2911 2.11487,1.7131 3.12087,1.7631 5.63642,4.5686 7.04369,7.8659 1.62619,-0.2986 3.38953,0.1583 4.63017,1.2598 0.63505,0.611 0.69003,1.7019 0.11652,2.3717 -0.53738,0.6882 -1.60082,0.856 -2.3265,0.3724 -0.4481,-0.3754 -1.03089,-0.6101 -1.6217,-0.546 -0.96631,0.065 -1.80523,0.8911 -1.88469,1.8562 -0.0888,0.7635 0.29426,1.5361 0.92689,1.9631 1.12078,0.949 2.71056,1.2952 4.12463,0.8998 1.62401,-0.422 2.93828,-1.8184 3.26338,-3.4641 0.33877,-1.5736 -0.23302,-3.3044 -1.45763,-4.3533 -2.55508,-2.0435 -5.12462,-4.0693 -7.68524,-6.1059 -0.99961,-0.8088 -2.03195,-1.5783 -3.0061,-2.4178 -2.6901,-2.3751 -4.50637,-5.7127 -5.03155,-9.2632 -0.37094,0.03 -0.74312,0.045 -1.11521,0.049 -3.37697,0.032 -6.74703,-1.0898 -9.43773,-3.1293 -3.31822,-2.6195 -6.62367,-5.2549 -9.93708,-7.8807 -0.80457,-0.6998 -1.84217,-1.1356 -2.91288,-1.1604 z m 31.45909,2.5957 c -0.65714,0 -1.29102,0.2031 -1.92749,0.3405 -3.18412,0.7966 -6.28504,1.9504 -9.18615,3.4893 -0.78782,0.4209 -1.60887,0.9065 -2.37025,1.4167 0.11916,0.075 0.35175,0.1311 0.51409,0.1936 0.36438,0.1176 0.75869,0.2265 1.15612,0.3134 0.46918,0.1035 1.07129,0.1982 1.60886,0.2378 0.24075,0.02 0.53297,0.032 0.74237,0.036 0.5371,0.01 1.07505,-0.018 1.60838,-0.082 0.48791,-0.035 0.95998,-0.1971 1.44907,-0.204 0.86232,0.01 1.6425,0.7318 1.7092,1.5927 0.0378,1.5449 0.34051,3.0872 0.94734,4.5113 1.60083,-1.7664 3.2015,-3.5324 4.80233,-5.2988 0.47682,-0.549 1.0034,-1.057 1.44241,-1.6374 0.61784,-0.854 0.70035,-2.0285 0.26965,-2.9814 -0.45701,-1.0945 -1.55966,-1.9284 -2.76593,-1.927 z m -20.17138,11.7647 c -0.96029,1.2548 -1.93164,2.5013 -2.90908,3.7428 0.15497,0.8604 0.23954,1.7319 0.28439,2.6047 0.1789,3.9264 -0.46825,7.855 -1.57224,11.6149 1.43523,-0.8567 2.92033,-1.6299 4.4466,-2.3113 2.88434,-1.2718 5.9263,-2.2457 9.06488,-2.619 0.4917,-1.4055 1.14614,-2.7555 1.96173,-4.0019 -1.81604,-1.596 -2.94784,-3.9407 -3.0603,-6.3565 -0.54609,0.097 -1.10077,0.1474 -1.65547,0.1445 -2.42423,0 -4.81987,-1.0245 -6.50725,-2.7621 -0.0178,-0.019 -0.0354,-0.037 -0.0533,-0.056 z m 2.95996,3.9325 c 1.2289,-0.011 2.439,0.5297 3.25434,1.4486 1.0694,1.1711 1.39975,2.9455 0.8332,4.4252 -0.55839,1.5486 -2.06678,2.697 -3.71042,2.8125 -1.48112,0.1401 -2.99907,-0.553 -3.87068,-1.7572 -1.01182,-1.3406 -1.12405,-3.2796 -0.27678,-4.7291 0.74603,-1.3363 2.23804,-2.2128 3.77034,-2.2 z m -0.009,3.5454 c -0.0974,0 -0.19396,0.023 -0.28439,0.059 -0.50946,0.1872 -0.66906,0.9152 -0.28202,1.296 0.3536,0.4128 1.09664,0.3014 1.31258,-0.1979 0.25474,-0.4766 -0.10774,-1.1253 -0.64868,-1.1551 -0.0324,0 -0.065,0 -0.0975,0 z m -9.10816,0.321 c -6.05036,7.4374 -12.40016,14.6317 -19.02763,21.5605 0.16743,0.3029 0.32638,0.6107 0.4789,0.9212 0.70364,1.4007 1.23614,2.8778 1.70873,4.3701 4.20662,-3.8288 8.3217,-7.7579 12.3644,-11.759 0.72412,-0.6694 1.35779,-1.4475 1.77864,-2.3441 0.41206,-0.9065 0.70364,-1.8624 1.01487,-2.8069 0.96802,-3.085 1.60165,-6.3173 1.67781,-9.5338 10e-4,-0.136 0.003,-0.272 0.004,-0.408 z m 14.5487,8.9669 c -0.36527,0.069 -0.72918,0.1455 -1.09096,0.2307 -0.80662,0.1876 -1.63383,0.4239 -2.44063,0.6872 -0.97157,0.3192 -1.95956,0.6964 -2.91621,1.1114 -0.3328,0.1442 -0.70122,0.3129 -1.00679,0.4542 -1.93467,0.912 -3.79123,1.9865 -5.55848,3.1906 -0.73862,0.5231 -1.51214,1.0098 -2.17004,1.6359 -4.88817,4.8647 -9.86768,9.6395 -14.9905,14.2567 0.89618,2.7158 1.79223,5.4313 2.6884,8.1471 0.23264,0.7251 0.47713,1.4086 0.77281,2.1034 0.36648,-0.2768 0.73336,-0.5524 1.09714,-0.8327 4.09704,-3.1298 8.09329,-6.4326 11.95826,-9.8101 4.76555,-4.1669 9.36891,-8.4868 13.86007,-12.9484 -0.52106,-2.56 -0.60966,-5.2068 -0.26632,-7.7965 0.021,-0.1432 0.0422,-0.2863 0.0633,-0.4295 z m -39.03875,5.7221 c 1.28833,1.1452 2.45839,2.4234 3.49022,3.8041 0.51308,-0.5383 1.02414,-1.0792 1.53277,-1.6217 -1.50617,-0.8595 -3.08886,-1.5974 -4.75001,-2.1035 -0.0909,-0.026 -0.18205,-0.053 -0.27298,-0.079 z m -18.5573,8.3035 c 0.24816,-0.012 0.49804,0.027 0.73,0.1165 1.15301,0.5514 2.25057,1.2178 3.3,1.9465 4.36052,3.0316 7.71587,7.4691 9.46816,12.4805 1.37572,4.1364 2.73143,8.2795 4.09943,12.4186 0.45373,1.4114 0.92341,2.8239 1.58746,4.1531 0.12856,0.2679 0.2935,0.5802 0.41423,0.8104 0.0739,0.1331 0.17819,0.3232 0.2335,0.4209 2.08015,3.6743 5.25036,6.7175 9.00496,8.6483 0.52216,0.2207 0.9725,0.6474 1.11949,1.207 0.2628,0.8467 -0.22663,1.835 -1.061,2.1362 -0.5366,0.1739 -1.10761,0.2129 -1.66545,0.2787 -3.17163,0.2844 -6.35112,-0.4991 -9.23941,-1.7739 -3.57686,-1.584 -6.79684,-3.8742 -9.75018,-6.4192 -6.4214,3.305 -13.11274,6.1271 -20.06629,8.1051 -5.06045,1.4289 -10.26912,2.4251 -15.53361,2.6071 -2.17928,0.057 -4.37594,0.01 -6.52627,-0.3776 -0.56341,-0.067 -1.11395,-0.3566 -1.40865,-0.8541 -0.48549,-0.7424 -0.28428,-1.8271 0.43515,-2.346 1.5793,-1.0028 3.14539,-2.0286 4.69152,-3.0827 5.66664,-3.8658 11.146,-7.9707 16.51804,-12.2374 5.45115,-4.3439 10.79159,-8.8697 15.97542,-13.5447 0.0946,-0.1133 0.31573,-0.2162 0.30532,-0.3477 -0.0324,-2.4094 -0.60032,-4.7907 -1.50662,-7.0161 -0.47779,-1.1744 -1.0787,-2.3658 -1.75914,-3.4641 -0.16737,-0.2715 -0.34094,-0.5391 -0.53549,-0.816 -0.3116,-0.381 -0.54413,-0.8528 -0.50791,-1.3569 0.0176,-0.8859 0.79254,-1.6653 1.67734,-1.6925 z m 4.94833,7.4408 c 0.43795,1.2891 0.77417,2.6143 0.98015,3.9605 0.44501,-0.4103 0.88637,-0.8247 1.32875,-1.2379 -0.65326,-0.9106 -1.37583,-1.7716 -2.15957,-2.5728 -0.0498,-0.05 -0.0996,-0.1 -0.14933,-0.1498 z m 4.14699,5.8719 c -0.0423,0 -0.0913,0.037 -0.14933,0.1236 -7.84567,7.3017 -16.01654,14.2579 -24.50528,20.802 1.93854,-0.9255 3.83977,-1.9287 5.70734,-2.9899 1.46649,-0.8292 2.95008,-1.7235 4.38002,-2.6137 5.58887,-3.5047 10.92996,-7.3925 16.10334,-11.4823 -0.39292,-1.2327 -0.81664,-2.4589 -1.38343,-3.6243 l -0.005,-0.01 c -0.0388,-0.1254 -0.0856,-0.2055 -0.14742,-0.2054 z m 25.36225,6.2109 c -0.63717,0.4907 -1.27724,0.9776 -1.92083,1.4596 0.87569,1.3901 1.90465,2.684 3.06886,3.8435 -0.55642,-1.6378 -0.94586,-3.3345 -1.12568,-5.0558 -0.007,-0.082 -0.015,-0.1649 -0.0224,-0.2473 z m -22.67147,1.2503 c -0.0565,0.01 -0.13141,0.072 -0.2083,0.1441 -5.88054,4.5808 -11.96819,8.917 -18.39893,12.6959 -3.95372,2.308 -8.0357,4.4289 -12.3292,6.0345 -1.93652,0.7068 -3.9151,1.3439 -5.96035,1.6431 -1.02727,0.7217 -2.05735,1.4394 -3.09645,2.1439 -0.22753,0.1213 -0.21193,0.1663 0.0433,0.136 1.4456,-0.029 2.95852,-0.1315 4.42187,-0.2953 0.41284,-0.042 0.82828,-0.1005 1.25931,-0.1527 0.8187,-0.1082 1.68025,-0.2428 2.50056,-0.3857 3.27308,-0.5749 6.47955,-1.389 9.65078,-2.384 3.40872,-1.0708 6.78396,-2.3595 10.06882,-3.7979 5.08227,-2.2284 10.00433,-4.8146 14.76318,-7.6672 -0.87327,-2.6488 -1.74666,-5.2975 -2.61993,-7.9463 -0.009,-0.1293 -0.0448,-0.1728 -0.0946,-0.1684 z m 4.01193,11.4665 c -1.38261,0.8201 -2.77744,1.6201 -4.18694,2.3931 0.64655,0.5289 1.28066,1.0226 1.95698,1.518 0.5112,0.3748 1.0581,0.7554 1.57034,1.0934 2.11817,1.3914 4.3881,2.5956 6.83112,3.3028 -2.53069,-2.2474 -4.60143,-5.0085 -6.05784,-8.0633 -0.038,-0.081 -0.0757,-0.1627 -0.11366,-0.244 z"
         transform="matrix(3.6680525,0,0,3.6680525,-1844.8226,5874.296)" />
    </g>
  </g>
</svg>
